<svg width="454" height="114" viewBox="0 0 454 114" fill="none" xmlns="http://www.w3.org/2000/svg">
<path d="M88.8383 15.0699C78.2929 -0.0834026 57.2987 -4.52322 42.2061 5.03203L15.6006 22.0192C8.3446 26.5555 3.31374 33.9874 1.86253 42.3844C0.604817 49.4302 1.66904 56.669 5.05519 62.9427C2.73326 66.4173 1.1853 70.278 0.508067 74.3318C-1.03989 82.9218 0.991807 91.8015 6.02267 98.8473C16.6648 114.001 37.5623 118.44 52.6548 108.885L79.2603 91.9945C86.5164 87.4582 91.5472 80.0263 92.9984 71.6293C94.2562 64.5835 93.1919 57.3447 89.8058 51.071C92.1277 47.5964 93.6757 43.7357 94.3529 39.6819C95.9976 30.9953 93.9659 22.1157 88.8383 15.0699Z" fill="white"/>
<path d="M39.5939 100.296C30.9834 102.516 21.9859 99.137 16.955 91.8986C13.8591 87.6518 12.6982 82.3433 13.5689 77.1314C13.7624 76.2627 13.9559 75.4906 14.1494 74.6219L14.6331 73.0776L15.9876 74.0428C19.1802 76.3592 22.6631 78.0965 26.4363 79.2547L27.4038 79.5443L27.307 80.5095C27.2103 81.8607 27.5973 83.3085 28.3712 84.4667C29.9192 86.6866 32.6281 87.7483 35.2403 87.0727C35.8208 86.8796 36.4013 86.6866 36.885 86.3971L63.3937 69.5065C64.7482 68.6378 65.6189 67.3831 65.9092 65.8388C66.1994 64.2945 65.8124 62.6537 64.9417 61.399C63.3937 59.1791 60.6848 58.2139 58.0726 58.8895C57.4922 59.0825 56.9117 59.2756 56.4279 59.5651L46.2695 66.0318C44.6248 67.0935 42.7866 67.8657 40.8516 68.3482C32.2411 70.5682 23.2436 67.19 18.2128 59.9512C15.2136 55.7044 13.9559 50.3959 14.9234 45.184C15.7941 40.1651 18.89 35.6287 23.2436 32.9262L49.8491 16.0356C51.4938 14.9739 53.332 14.2018 55.267 13.6227C63.8775 11.4028 72.875 14.7809 77.9058 22.0197C81.0018 26.2665 82.1627 31.575 81.292 36.7869C81.0985 37.6556 80.905 38.4278 80.6148 39.2964L80.131 40.8407L78.7766 39.8755C75.5839 37.5591 72.101 35.8218 68.3279 34.6636L67.3604 34.374L67.4571 33.4088C67.5539 32.0576 67.1669 30.6098 66.3929 29.4516C64.845 27.2317 62.136 26.2665 59.5239 26.9421C58.9434 27.1352 58.3629 27.3282 57.8791 27.6178L31.3704 44.5084C30.0159 45.377 29.1452 46.6318 28.855 48.176C28.5647 49.7203 28.9517 51.3611 29.8224 52.6159C31.3704 54.8358 34.0793 55.8009 36.6915 55.1253C37.272 54.9323 37.8525 54.7392 38.3362 54.4497L48.4947 47.983C50.1394 46.9213 51.9776 46.1492 53.9125 45.5701C62.523 43.3502 71.5205 46.7283 76.5514 53.9671C79.6473 58.2139 80.8083 63.5224 79.9375 68.7343C79.0668 73.7532 75.9709 78.2896 71.6173 80.9921L45.0118 97.8827C43.3671 98.9444 41.5289 99.717 39.5939 100.296Z" fill="black"/>
<path d="M146.331 64.9092C147.511 71.1031 151.862 75.1586 159.088 75.1586C164.766 75.1586 168.6 72.9465 168.526 68.5961C168.526 64.1719 164.692 61.5911 155.622 59.3053C145.447 56.872 137.999 52.3741 137.999 43.9681C137.999 34.6773 145.52 28.9259 156.655 28.9259C168.231 28.9259 175.973 36.0046 177.153 46.1802L167.715 46.6964C166.978 40.7975 162.701 37.0369 156.507 37.0369C151.198 37.0369 147.364 39.7651 147.511 44.0419C147.585 49.2771 153.926 50.8256 159.825 52.3741C170.517 54.9548 178.038 59.8952 178.038 68.0799C178.038 77.9606 169.19 83.3433 158.719 83.3433C146.479 83.3433 137.778 76.3384 136.893 65.4254L146.331 64.9092ZM220.757 43.3782L206.378 82.4585H196.276L181.898 43.3782H190.967L201.29 73.1677L211.613 43.3782H220.757ZM222.817 62.9184C222.817 50.5307 230.412 42.4934 241.989 42.4934C251.87 42.4934 259.907 49.1297 260.202 62.9921V65.4254H232.403C232.846 72.0617 236.311 75.9697 241.989 75.9697C245.602 75.9697 248.846 73.9051 250.321 70.5132L259.686 71.1768C257.326 78.6979 250.321 83.3433 241.989 83.3433C230.412 83.3433 222.817 75.3061 222.817 62.9184ZM232.477 59.1578H250.763C249.952 52.3003 246.192 49.7933 241.989 49.7933C236.68 49.7933 233.288 53.3326 232.477 59.1578ZM268.737 30.1057H277.88V72.5041C277.88 74.3475 278.839 75.2323 280.608 75.2323H283.705V82.4585H278.322C272.571 82.4585 268.737 78.8454 268.737 72.8728V30.1057ZM292.138 34.5299H301.281V43.3782H311.605V50.5307H301.281V70.5869C301.281 73.6839 302.756 75.2323 305.706 75.2323H311.605V82.4585H304.305C296.341 82.4585 292.138 78.403 292.138 70.5869V50.5307H286.018V43.3782H292.138V34.5299ZM315.152 62.9184C315.152 50.5307 322.747 42.4934 334.323 42.4934C344.204 42.4934 352.241 49.1297 352.536 62.9921V65.4254H324.738C325.18 72.0617 328.646 75.9697 334.323 75.9697C337.937 75.9697 341.181 73.9051 342.656 70.5132L352.02 71.1768C349.661 78.6979 342.656 83.3433 334.323 83.3433C322.747 83.3433 315.152 75.3061 315.152 62.9184ZM324.811 59.1578H343.098C342.287 52.3003 338.526 49.7933 334.323 49.7933C329.014 49.7933 325.623 53.3326 324.811 59.1578ZM361.071 30.1057H370.362V54.1437L391.082 30.1057H401.848L382.086 53.0377L403.101 82.4585H392.63L376.187 59.4528L370.362 66.1628V82.4585H361.071V30.1057ZM409.935 43.3782H419.079V82.4585H409.935V43.3782ZM409.714 33.4976C409.714 30.843 411.779 28.9259 414.507 28.9259C417.235 28.9259 419.3 30.843 419.3 33.4976C419.3 36.2995 417.235 38.2167 414.507 38.2167C411.779 38.2167 409.714 36.2995 409.714 33.4976ZM431.261 34.5299H440.404V43.3782H450.727V50.5307H440.404V70.5869C440.404 73.6839 441.879 75.2323 444.828 75.2323H450.727V82.4585H443.427C435.464 82.4585 431.261 78.403 431.261 70.5869V50.5307H425.141V43.3782H431.261V34.5299Z" fill="white"/>
</svg>
