<svg width="488" height="114" viewBox="0 0 488 114" fill="none" xmlns="http://www.w3.org/2000/svg">
<path d="M88.8383 15.0699C78.2929 -0.0834026 57.2987 -4.52322 42.2061 5.03203L15.6006 22.0192C8.3446 26.5555 3.31374 33.9874 1.86253 42.3844C0.604817 49.4302 1.66904 56.669 5.05519 62.9427C2.73326 66.4173 1.1853 70.278 0.508067 74.3318C-1.03989 82.9218 0.991807 91.8015 6.02267 98.8473C16.6648 114.001 37.5623 118.44 52.6548 108.885L79.2603 91.9945C86.5164 87.4582 91.5472 80.0263 92.9984 71.6293C94.2562 64.5835 93.1919 57.3447 89.8058 51.071C92.1277 47.5964 93.6757 43.7357 94.3529 39.6819C95.9976 30.9953 93.9659 22.1157 88.8383 15.0699Z" fill="black"/>
<path d="M39.5939 100.296C30.9834 102.516 21.9859 99.137 16.955 91.8986C13.8591 87.6518 12.6982 82.3433 13.5689 77.1314C13.7624 76.2627 13.9559 75.4906 14.1494 74.6219L14.6331 73.0776L15.9876 74.0428C19.1802 76.3592 22.6631 78.0965 26.4363 79.2547L27.4038 79.5443L27.307 80.5095C27.2103 81.8607 27.5973 83.3085 28.3712 84.4667C29.9192 86.6866 32.6281 87.7483 35.2403 87.0727C35.8208 86.8796 36.4013 86.6866 36.885 86.3971L63.3937 69.5065C64.7482 68.6378 65.6189 67.3831 65.9092 65.8388C66.1994 64.2945 65.8124 62.6537 64.9417 61.399C63.3937 59.1791 60.6848 58.2139 58.0726 58.8895C57.4922 59.0825 56.9117 59.2756 56.4279 59.5651L46.2695 66.0318C44.6248 67.0935 42.7866 67.8657 40.8516 68.3482C32.2411 70.5682 23.2436 67.19 18.2128 59.9512C15.2136 55.7044 13.9559 50.3959 14.9234 45.184C15.7941 40.1651 18.89 35.6287 23.2436 32.9262L49.8491 16.0356C51.4938 14.9739 53.332 14.2018 55.267 13.6227C63.8775 11.4028 72.875 14.7809 77.9058 22.0197C81.0018 26.2665 82.1627 31.575 81.292 36.7869C81.0985 37.6556 80.905 38.4278 80.6148 39.2964L80.131 40.8407L78.7766 39.8755C75.5839 37.5591 72.101 35.8218 68.3279 34.6636L67.3604 34.374L67.4571 33.4088C67.5539 32.0576 67.1669 30.6098 66.3929 29.4516C64.845 27.2317 62.136 26.2665 59.5239 26.9421C58.9434 27.1352 58.3629 27.3282 57.8791 27.6178L31.3704 44.5084C30.0159 45.377 29.1452 46.6318 28.855 48.176C28.5647 49.7203 28.9517 51.3611 29.8224 52.6159C31.3704 54.8358 34.0793 55.8009 36.6915 55.1253C37.272 54.9323 37.8525 54.7392 38.3362 54.4497L48.4947 47.983C50.1394 46.9213 51.9776 46.1492 53.9125 45.5701C62.523 43.3502 71.5205 46.7283 76.5514 53.9671C79.6473 58.2139 80.8083 63.5224 79.9375 68.7343C79.0668 73.7532 75.9709 78.2896 71.6173 80.9921L45.0118 97.8827C43.3671 98.9444 41.5289 99.717 39.5939 100.296Z" fill="white"/>
<path d="M138.958 30.1057H173.761V38.2904H148.249V52.8165H172.434V60.8537H148.249V82.4585H138.958V30.1057ZM181.845 43.3782H190.989V82.4585H181.845V43.3782ZM181.624 33.4976C181.624 30.843 183.689 28.9259 186.417 28.9259C189.145 28.9259 191.21 30.843 191.21 33.4976C191.21 36.2995 189.145 38.2167 186.417 38.2167C183.689 38.2167 181.624 36.2995 181.624 33.4976ZM200.406 43.3782H208.96L209.181 50.8993C210.508 45.8115 213.457 43.3782 218.472 43.3782H222.158V50.5307H218.472C212.204 50.5307 209.549 53.7013 209.549 60.0426V82.4585H200.406V43.3782ZM224.816 62.9184C224.816 50.5307 232.411 42.4934 243.988 42.4934C253.868 42.4934 261.906 49.1297 262.201 62.9921V65.4254H234.402C234.844 72.0617 238.31 75.9697 243.988 75.9697C247.601 75.9697 250.845 73.9051 252.32 70.5132L261.684 71.1768C259.325 78.6979 252.32 83.3433 243.988 83.3433C232.411 83.3433 224.816 75.3061 224.816 62.9184ZM234.476 59.1578H252.762C251.951 52.3003 248.191 49.7933 243.988 49.7933C238.679 49.7933 235.287 53.3326 234.476 59.1578ZM278.109 64.9092C279.289 71.1031 283.639 75.1586 290.866 75.1586C296.543 75.1586 300.378 72.9465 300.304 68.5961C300.304 64.1719 296.47 61.5911 287.4 59.3053C277.224 56.872 269.777 52.3741 269.777 43.9681C269.777 34.6773 277.298 28.9259 288.432 28.9259C300.009 28.9259 307.751 36.0046 308.931 46.1802L299.493 46.6964C298.755 40.7975 294.479 37.0369 288.285 37.0369C282.976 37.0369 279.142 39.7651 279.289 44.0419C279.363 49.2771 285.704 50.8256 291.603 52.3741C302.295 54.9548 309.816 59.8952 309.816 68.0799C309.816 77.9606 300.968 83.3433 290.497 83.3433C278.257 83.3433 269.556 76.3384 268.671 65.4254L278.109 64.9092ZM352.535 43.3782L338.156 82.4585H328.054L313.676 43.3782H322.745L333.068 73.1677L343.391 43.3782H352.535ZM354.595 62.9184C354.595 50.5307 362.19 42.4934 373.767 42.4934C383.647 42.4934 391.685 49.1297 391.98 62.9921V65.4254H364.181C364.623 72.0617 368.089 75.9697 373.767 75.9697C377.38 75.9697 380.624 73.9051 382.099 70.5132L391.463 71.1768C389.104 78.6979 382.099 83.3433 373.767 83.3433C362.19 83.3433 354.595 75.3061 354.595 62.9184ZM364.255 59.1578H382.541C381.73 52.3003 377.97 49.7933 373.767 49.7933C368.458 49.7933 365.066 53.3326 364.255 59.1578ZM400.515 30.1057H409.658V72.5041C409.658 74.3475 410.616 75.2323 412.386 75.2323H415.483V82.4585H410.1C404.349 82.4585 400.515 78.8454 400.515 72.8728V30.1057ZM423.916 34.5299H433.059V43.3782H443.382V50.5307H433.059V70.5869C433.059 73.6839 434.534 75.2323 437.483 75.2323H443.382V82.4585H436.083C428.119 82.4585 423.916 78.403 423.916 70.5869V50.5307H417.796V43.3782H423.916V34.5299ZM446.93 62.9184C446.93 50.5307 454.525 42.4934 466.101 42.4934C475.982 42.4934 484.019 49.1297 484.314 62.9921V65.4254H456.516C456.958 72.0617 460.424 75.9697 466.101 75.9697C469.714 75.9697 472.959 73.9051 474.433 70.5132L483.798 71.1768C481.438 78.6979 474.433 83.3433 466.101 83.3433C454.525 83.3433 446.93 75.3061 446.93 62.9184ZM456.589 59.1578H474.876C474.065 52.3003 470.304 49.7933 466.101 49.7933C460.792 49.7933 457.4 53.3326 456.589 59.1578Z" fill="black"/>
</svg>
